<svg version="1.1" xmlns="http://www.w3.org/2000/svg" xmlns:xlink="http://www.w3.org/1999/xlink" width="1031" height="957"><defs/><g><g transform="translate(-198,-822) scale(1,1)"><rect fill="#C0C0C0" stroke="none" x="399" y="839" width="403" height="306" opacity="0.2"/></g><g transform="translate(-198,-822) scale(1,1)"><rect fill="#ffffff" stroke="none" x="392" y="832" width="403" height="306"/></g><g transform="translate(-198,-822) scale(1,1)"><path fill="none" stroke="#000000" d="M 392 832 L 795 832 L 795 1138 L 392 1138 L 392 832 Z Z" stroke-miterlimit="10"/></g><g transform="translate(-198,-822) scale(1,1)"><path fill="#ffffff" stroke="none" d="M 769 849 C 769 844.0294368 773.0294368 840 778 840 C 782.9705632 840 787 844.0294368 787 849 C 787 853.9705632 782.9705632 858 778 858 C 773.0294368 858 769 853.9705632 769 849 Z"/></g><g transform="translate(-198,-822) scale(1,1)"><path fill="none" stroke="#000000" d="M 769 849 C 769 844.0294368 773.0294368 840 778 840 C 782.9705632 840 787 844.0294368 787 849 C 787 853.9705632 782.9705632 858 778 858 C 773.0294368 858 769 853.9705632 769 849 Z" stroke-miterlimit="10"/></g><g transform="translate(-198,-822) scale(1,1)"><path fill="none" stroke="#000000" d="M 392 866 L 795 866" stroke-miterlimit="10"/></g><g transform="translate(-198,-822) scale(1,1)"><path fill="none" stroke="#000000" d="M 392 876 L 795 876" stroke-miterlimit="10"/></g><g transform="translate(-198,-822) scale(1,1)"><g><path fill="none" stroke="none"/><text fill="#000000" stroke="none" font-family="Arial" font-size="13px" font-style="normal" font-weight="bold" text-decoration="none" x="556.5" y="851.5">Analysis</text></g></g><g transform="translate(-198,-822) scale(1,1)"><g><path fill="none" stroke="none"/><text fill="#000000" stroke="none" font-family="Arial" font-size="13px" font-style="normal" font-weight="normal" text-decoration="none" x="397" y="893.5">+performAnalysis(cfg: ControlFlowGraph)</text></g></g><g transform="translate(-198,-822) scale(1,1)"><g><path fill="none" stroke="none"/><text fill="#000000" stroke="none" font-family="Arial" font-size="13px" font-style="normal" font-weight="normal" text-decoration="none" x="397" y="908.5">+getResult()</text></g></g><g transform="translate(-198,-822) scale(1,1)"><g><path fill="none" stroke="none"/><text fill="#000000" stroke="none" font-family="Arial" font-size="13px" font-style="normal" font-weight="normal" text-decoration="none" x="397" y="923.5">+getTransferFunction()</text></g></g><g transform="translate(-198,-822) scale(1,1)"><g><path fill="none" stroke="none"/><text fill="#000000" stroke="none" font-family="Arial" font-size="13px" font-style="normal" font-weight="normal" text-decoration="none" x="397" y="938.5">+setTransferFunction(transferFunction: T extends TransferFunction)</text></g></g><g transform="translate(-198,-822) scale(1,1)"><g><path fill="none" stroke="none"/><text fill="#000000" stroke="none" font-family="Arial" font-size="13px" font-style="normal" font-weight="normal" text-decoration="none" x="397" y="953.5">+getCurrentTree()</text></g></g><g transform="translate(-198,-822) scale(1,1)"><g><path fill="none" stroke="none"/><text fill="#000000" stroke="none" font-family="Arial" font-size="13px" font-style="normal" font-weight="normal" text-decoration="none" x="397" y="968.5">+setCurrentTree(tree: Tree)</text></g></g><g transform="translate(-198,-822) scale(1,1)"><g><path fill="none" stroke="none"/><text fill="#000000" stroke="none" font-family="Arial" font-size="13px" font-style="normal" font-weight="normal" text-decoration="none" x="397" y="983.5">+getInput(block: Block)</text></g></g><g transform="translate(-198,-822) scale(1,1)"><g><path fill="none" stroke="none"/><text fill="#000000" stroke="none" font-family="Arial" font-size="13px" font-style="normal" font-weight="normal" text-decoration="none" x="397" y="998.5">+getValue(node: Node)</text></g></g><g transform="translate(-198,-822) scale(1,1)"><g><path fill="none" stroke="none"/><text fill="#000000" stroke="none" font-family="Arial" font-size="13px" font-style="normal" font-weight="normal" text-decoration="none" x="397" y="1013.5">+getValue(tree: Tree)</text></g></g><g transform="translate(-198,-822) scale(1,1)"><g><path fill="none" stroke="none"/><text fill="#000000" stroke="none" font-family="Arial" font-size="13px" font-style="normal" font-weight="normal" text-decoration="none" x="397" y="1028.5">+getNodeForTree(tree: Tree)</text></g></g><g transform="translate(-198,-822) scale(1,1)"><g><path fill="none" stroke="none"/><text fill="#000000" stroke="none" font-family="Arial" font-size="13px" font-style="normal" font-weight="normal" text-decoration="none" x="397" y="1043.5">+getContainingMethod(tree: Tree)</text></g></g><g transform="translate(-198,-822) scale(1,1)"><g><path fill="none" stroke="none"/><text fill="#000000" stroke="none" font-family="Arial" font-size="13px" font-style="normal" font-weight="normal" text-decoration="none" x="397" y="1058.5">+getContainingClass(tree: Tree)</text></g></g><g transform="translate(-198,-822) scale(1,1)"><g><path fill="none" stroke="none"/><text fill="#000000" stroke="none" font-family="Arial" font-size="13px" font-style="normal" font-weight="normal" text-decoration="none" x="397" y="1073.5">+getRegularExitStore()</text></g></g><g transform="translate(-198,-822) scale(1,1)"><g><path fill="none" stroke="none"/><text fill="#000000" stroke="none" font-family="Arial" font-size="13px" font-style="normal" font-weight="normal" text-decoration="none" x="397" y="1088.5">+getExceptionExitStore()</text></g></g><g transform="translate(-198,-822) scale(1,1)"><rect fill="#C0C0C0" stroke="none" x="399" y="1255" width="435" height="295" opacity="0.2"/></g><g transform="translate(-198,-822) scale(1,1)"><rect fill="#ffffff" stroke="none" x="392" y="1248" width="435" height="295"/></g><g transform="translate(-198,-822) scale(1,1)"><path fill="none" stroke="#000000" d="M 392 1248 L 827 1248 L 827 1543 L 392 1543 L 392 1248 Z Z" stroke-miterlimit="10"/></g><g transform="translate(-198,-822) scale(1,1)"><path fill="none" stroke="#000000" d="M 392 1273 L 827 1273" stroke-miterlimit="10"/></g><g transform="translate(-198,-822) scale(1,1)"><path fill="none" stroke="#000000" d="M 392 1416 L 827 1416" stroke-miterlimit="10"/></g><g transform="translate(-198,-822) scale(1,1)"><g><path fill="none" stroke="none"/><text fill="#000000" stroke="none" font-family="Arial" font-size="13px" font-style="italic" font-weight="bold" text-decoration="none" x="560" y="1267.5">AbstractAnalysis</text></g></g><g transform="translate(-198,-822) scale(1,1)"><g><path fill="none" stroke="none"/><text fill="#000000" stroke="none" font-family="Arial" font-size="13px" font-style="normal" font-weight="normal" text-decoration="none" x="397" y="1290.5">#worklist: Worklist</text></g></g><g transform="translate(-198,-822) scale(1,1)"><g><path fill="none" stroke="none"/><text fill="#000000" stroke="none" font-family="Arial" font-size="13px" font-style="normal" font-weight="normal" text-decoration="none" x="397" y="1305.5">#isRunning: boolean</text></g></g><g transform="translate(-198,-822) scale(1,1)"><g><path fill="none" stroke="none"/><text fill="#000000" stroke="none" font-family="Arial" font-size="13px" font-style="normal" font-weight="normal" text-decoration="none" x="397" y="1320.5">#cfg: ControlFlowGraph</text></g></g><g transform="translate(-198,-822) scale(1,1)"><g><path fill="none" stroke="none"/><text fill="#000000" stroke="none" font-family="Arial" font-size="13px" font-style="normal" font-weight="normal" text-decoration="none" x="397" y="1335.5">#inputs: IdentityHashMap&lt;Block, TransferInput&lt;V, S&gt;&gt;</text></g></g><g transform="translate(-198,-822) scale(1,1)"><g><path fill="none" stroke="none"/><text fill="#000000" stroke="none" font-family="Arial" font-size="13px" font-style="normal" font-weight="normal" text-decoration="none" x="397" y="1350.5">#nodeValues: IdentityMap&lt;Node,  V&gt;</text></g></g><g transform="translate(-198,-822) scale(1,1)"><g><path fill="none" stroke="none"/><text fill="#000000" stroke="none" font-family="Arial" font-size="13px" font-style="normal" font-weight="normal" text-decoration="none" x="397" y="1365.5">+finalLocalValues: HashMap&lt;Element, V&gt;</text></g></g><g transform="translate(-198,-822) scale(1,1)"><g><path fill="none" stroke="none"/><text fill="#000000" stroke="none" font-family="Arial" font-size="13px" font-style="normal" font-weight="normal" text-decoration="none" x="397" y="1380.5">#currentNode: Node</text></g></g><g transform="translate(-198,-822) scale(1,1)"><g><path fill="none" stroke="none"/><text fill="#000000" stroke="none" font-family="Arial" font-size="13px" font-style="normal" font-weight="normal" text-decoration="none" x="397" y="1395.5">#currentTree: Tree</text></g></g><g transform="translate(-198,-822) scale(1,1)"><g><path fill="none" stroke="none"/><text fill="#000000" stroke="none" font-family="Arial" font-size="13px" font-style="normal" font-weight="normal" text-decoration="none" x="397" y="1410.5">#currentInput: TransferInput</text></g></g><g transform="translate(-198,-822) scale(1,1)"><g><path fill="none" stroke="none"/><text fill="#000000" stroke="none" font-family="Arial" font-size="13px" font-style="italic" font-weight="normal" text-decoration="none" x="397" y="1433.5">#callTransferFunction()</text></g></g><g transform="translate(-198,-822) scale(1,1)"><g><path fill="none" stroke="none"/><text fill="#000000" stroke="none" font-family="Arial" font-size="13px" font-style="italic" font-weight="normal" text-decoration="none" x="397" y="1448.5">#init(cfg: ControlFlowGraph)</text></g></g><g transform="translate(-198,-822) scale(1,1)"><g><path fill="none" stroke="none"/><text fill="#000000" stroke="none" font-family="Arial" font-size="13px" font-style="normal" font-weight="normal" text-decoration="none" x="397" y="1463.5">#updateNodeValues(node: Node, transferResult: TransferResult)</text></g></g><g transform="translate(-198,-822) scale(1,1)"><g><path fill="none" stroke="none"/><text fill="#000000" stroke="none" font-family="Arial" font-size="13px" font-style="normal" font-weight="normal" text-decoration="none" x="397" y="1478.5">#addToWorkList(block: Block)</text></g></g><g transform="translate(-198,-822) scale(1,1)"><g><path fill="none" stroke="none"/><text fill="#000000" stroke="none" font-family="Arial" font-size="13px" font-style="italic" font-weight="normal" text-decoration="none" x="397" y="1493.5">#propogateStoreTo(b, node, currentInput, flowRule, addToWorklistAgain)</text></g></g><g transform="translate(-198,-822) scale(1,1)"><g><path fill="none" stroke="none"/><text fill="#000000" stroke="none" font-family="Arial" font-size="13px" font-style="normal" font-weight="normal" text-decoration="none" x="397" y="1508.5">+Analysis(env: ProcessingEnvironment)</text></g></g><g transform="translate(-198,-822) scale(1,1)"><path fill="#ffffff" stroke="none" d="M 1048 1272 L 1208 1272 L 1218 1282 L 1218 1320 L 1048 1320 L 1048 1272"/></g><g transform="translate(-198,-822) scale(1,1)"><path fill="none" stroke="#000000" d="M 1048 1272 L 1208 1272 L 1218 1282 L 1218 1320 L 1048 1320 L 1048 1272 L 1048 1272" stroke-miterlimit="10"/></g><g transform="translate(-198,-822) scale(1,1)"><path fill="none" stroke="#000000" d="M 1208 1272 L 1208 1282 L 1218 1282 L 1208 1272" stroke-miterlimit="10"/></g><g transform="translate(-198,-822) scale(1,1)"><g><path fill="none" stroke="none"/><text fill="#000000" stroke="none" font-family="Arial" font-size="13px" font-style="normal" font-weight="normal" text-decoration="none" x="1053" y="1290">&lt;T extends</text><text fill="#000000" stroke="none" font-family="Arial" font-size="13px" font-style="normal" font-weight="normal" text-decoration="none" x="1053" y="1303">ForwardTransferFunction&gt;</text></g></g><g transform="translate(-198,-822) scale(1,1)"><rect fill="#C0C0C0" stroke="none" x="751" y="1631" width="420" height="145" opacity="0.2"/></g><g transform="translate(-198,-822) scale(1,1)"><rect fill="#ffffff" stroke="none" x="744" y="1624" width="420" height="145"/></g><g transform="translate(-198,-822) scale(1,1)"><path fill="none" stroke="#000000" d="M 744 1624 L 1164 1624 L 1164 1769 L 744 1769 L 744 1624 Z Z" stroke-miterlimit="10"/></g><g transform="translate(-198,-822) scale(1,1)"><path fill="none" stroke="#000000" d="M 744 1649 L 1164 1649" stroke-miterlimit="10"/></g><g transform="translate(-198,-822) scale(1,1)"><path fill="none" stroke="#000000" d="M 744 1732 L 1164 1732" stroke-miterlimit="10"/></g><g transform="translate(-198,-822) scale(1,1)"><g><path fill="none" stroke="none"/><text fill="#000000" stroke="none" font-family="Arial" font-size="13px" font-style="normal" font-weight="bold" text-decoration="none" x="893.5" y="1643.5">ForwardAnalysisImpl</text></g></g><g transform="translate(-198,-822) scale(1,1)"><g><path fill="none" stroke="none"/><text fill="#000000" stroke="none" font-family="Arial" font-size="13px" font-style="normal" font-weight="normal" text-decoration="none" x="749" y="1666.5">#types: Types</text></g></g><g transform="translate(-198,-822) scale(1,1)"><g><path fill="none" stroke="none"/><text fill="#000000" stroke="none" font-family="Arial" font-size="13px" font-style="normal" font-weight="normal" text-decoration="none" x="749" y="1681.5">#env: ProcessingEnvironment</text></g></g><g transform="translate(-198,-822) scale(1,1)"><g><path fill="none" stroke="none"/><text fill="#000000" stroke="none" font-family="Arial" font-size="13px" font-style="normal" font-weight="normal" text-decoration="none" x="749" y="1696.5">#thenStores: IdentityMap&lt;Block S&gt;</text></g></g><g transform="translate(-198,-822) scale(1,1)"><g><path fill="none" stroke="none"/><text fill="#000000" stroke="none" font-family="Arial" font-size="13px" font-style="normal" font-weight="normal" text-decoration="none" x="749" y="1711.5">#elseStores: IdentityMap&lt;Block S&gt;</text></g></g><g transform="translate(-198,-822) scale(1,1)"><g><path fill="none" stroke="none"/><text fill="#000000" stroke="none" font-family="Arial" font-size="13px" font-style="normal" font-weight="normal" text-decoration="none" x="749" y="1726.5">#storesAtReturnStatements: IdentityMap&lt;ReturnNode TransferResult&gt;</text></g></g><g transform="translate(-198,-822) scale(1,1)"><g><path fill="none" stroke="none"/><text fill="#000000" stroke="none" font-family="Arial" font-size="13px" font-style="normal" font-weight="normal" text-decoration="none" x="749" y="1749.5">#addStoreBefore(b, n, s, kind, addBlockToWorklist)</text></g></g><g transform="translate(-198,-822) scale(1,1)"><g><path fill="none" stroke="none"/><text fill="#000000" stroke="none" font-family="Arial" font-size="13px" font-style="normal" font-weight="normal" text-decoration="none" x="749" y="1764.5">«TransferInput»#getInputBefore()</text></g></g><g transform="translate(-198,-822) scale(1,1)"><path fill="none" stroke="#000000" d="M 870 1623 L 780 1544" stroke-miterlimit="10"/></g><g transform="translate(-198,-822) scale(1,1)"><path fill="#FFFFFF" stroke="none" d="M 800.8292588476011 1551.0810999046498 L 780 1544 L 789.7214164173914 1563.7356039390659"/></g><g transform="translate(-198,-822) scale(1,1)"><path fill="none" stroke="#000000" d="M 800.8292588476011 1551.0810999046498 L 780 1544 L 789.7214164173914 1563.7356039390659 L 800.8292588476011 1551.0810999046498" stroke-miterlimit="10"/></g><g transform="translate(-198,-822) scale(1,1)"><rect fill="#C0C0C0" stroke="none" x="871" y="1287" width="179" height="84" opacity="0.2"/></g><g transform="translate(-198,-822) scale(1,1)"><rect fill="#ffffff" stroke="none" x="864" y="1280" width="179" height="84"/></g><g transform="translate(-198,-822) scale(1,1)"><path fill="none" stroke="#000000" d="M 864 1280 L 1043 1280 L 1043 1364 L 864 1364 L 864 1280 Z Z" stroke-miterlimit="10"/></g><g transform="translate(-198,-822) scale(1,1)"><path fill="#ffffff" stroke="none" d="M 1017 1297 C 1017 1292.0294368 1021.0294368 1288 1026 1288 C 1030.9705632 1288 1035 1292.0294368 1035 1297 C 1035 1301.9705632 1030.9705632 1306 1026 1306 C 1021.0294368 1306 1017 1301.9705632 1017 1297 Z"/></g><g transform="translate(-198,-822) scale(1,1)"><path fill="none" stroke="#000000" d="M 1017 1297 C 1017 1292.0294368 1021.0294368 1288 1026 1288 C 1030.9705632 1288 1035 1292.0294368 1035 1297 C 1035 1301.9705632 1030.9705632 1306 1026 1306 C 1021.0294368 1306 1017 1301.9705632 1017 1297 Z" stroke-miterlimit="10"/></g><g transform="translate(-198,-822) scale(1,1)"><path fill="none" stroke="#000000" d="M 864 1314 L 1043 1314" stroke-miterlimit="10"/></g><g transform="translate(-198,-822) scale(1,1)"><g><path fill="none" stroke="none"/><text fill="#000000" stroke="none" font-family="Arial" font-size="13px" font-style="normal" font-weight="bold" text-decoration="none" x="893.5" y="1299.5">ForwardAnalysis</text></g></g><g transform="translate(-198,-822) scale(1,1)"><g><path fill="none" stroke="none"/><text fill="#000000" stroke="none" font-family="Arial" font-size="13px" font-style="normal" font-weight="normal" text-decoration="none" x="869" y="1331.5">+getReturnStatementStores()</text></g></g><g transform="translate(-198,-822) scale(1,1)"><path fill="none" stroke="#000000" d="M 907 1279 L 758 1139" stroke-miterlimit="10"/></g><g transform="translate(-198,-822) scale(1,1)"><path fill="#FFFFFF" stroke="none" d="M 778.577558407821 1146.7822933620314 L 758 1139 L 767.047618680957 1159.0534434999079"/></g><g transform="translate(-198,-822) scale(1,1)"><path fill="none" stroke="#000000" d="M 778.577558407821 1146.7822933620314 L 758 1139 L 767.047618680957 1159.0534434999079 L 778.577558407821 1146.7822933620314" stroke-miterlimit="10"/></g><g transform="translate(-198,-822) scale(1,1)"><path fill="#ffffff" stroke="none" d="M 208 1072 L 368 1072 L 378 1082 L 378 1121 L 208 1121 L 208 1072"/></g><g transform="translate(-198,-822) scale(1,1)"><path fill="none" stroke="#000000" d="M 208 1072 L 368 1072 L 378 1082 L 378 1121 L 208 1121 L 208 1072 L 208 1072" stroke-miterlimit="10"/></g><g transform="translate(-198,-822) scale(1,1)"><path fill="none" stroke="#000000" d="M 368 1072 L 368 1082 L 378 1082 L 368 1072" stroke-miterlimit="10"/></g><g transform="translate(-198,-822) scale(1,1)"><g><path fill="none" stroke="none"/><text fill="#000000" stroke="none" font-family="Arial" font-size="13px" font-style="normal" font-weight="normal" text-decoration="none" x="213" y="1090">? is getEnv() and</text><text fill="#000000" stroke="none" font-family="Arial" font-size="13px" font-style="normal" font-weight="normal" text-decoration="none" x="213" y="1103">getTypes() here in interface</text><text fill="#000000" stroke="none" font-family="Arial" font-size="13px" font-style="normal" font-weight="normal" text-decoration="none" x="213" y="1116">reasonable?</text></g></g><g transform="translate(-198,-822) scale(1,1)"><path fill="none" stroke="#000000" d="M 603 1247 L 599 1139" stroke-miterlimit="10" stroke-dasharray="3"/></g><g transform="translate(-198,-822) scale(1,1)"><path fill="#FFFFFF" stroke="none" d="M 608.1655420165881 1158.9998209877529 L 599 1139 L 591.3390078702226 1159.6230259561366"/></g><g transform="translate(-198,-822) scale(1,1)"><path fill="none" stroke="#000000" d="M 608.1655420165881 1158.9998209877529 L 599 1139 L 591.3390078702226 1159.6230259561366 L 608.1655420165881 1158.9998209877529" stroke-miterlimit="10"/></g><g transform="translate(-198,-822) scale(1,1)"><rect fill="#C0C0C0" stroke="none" x="919" y="1431" width="164" height="71" opacity="0.2"/></g><g transform="translate(-198,-822) scale(1,1)"><rect fill="#ffffff" stroke="none" x="912" y="1424" width="164" height="71"/></g><g transform="translate(-198,-822) scale(1,1)"><path fill="none" stroke="#000000" d="M 912 1424 L 1076 1424 L 1076 1495 L 912 1495 L 912 1424 Z Z" stroke-miterlimit="10"/></g><g transform="translate(-198,-822) scale(1,1)"><path fill="#ffffff" stroke="none" d="M 1050 1441 C 1050 1436.0294368 1054.0294368 1432 1059 1432 C 1063.9705632 1432 1068 1436.0294368 1068 1441 C 1068 1445.9705632 1063.9705632 1450 1059 1450 C 1054.0294368 1450 1050 1445.9705632 1050 1441 Z"/></g><g transform="translate(-198,-822) scale(1,1)"><path fill="none" stroke="#000000" d="M 1050 1441 C 1050 1436.0294368 1054.0294368 1432 1059 1432 C 1063.9705632 1432 1068 1436.0294368 1068 1441 C 1068 1445.9705632 1063.9705632 1450 1059 1450 C 1054.0294368 1450 1050 1445.9705632 1050 1441 Z" stroke-miterlimit="10"/></g><g transform="translate(-198,-822) scale(1,1)"><path fill="none" stroke="#000000" d="M 912 1458 L 1076 1458" stroke-miterlimit="10"/></g><g transform="translate(-198,-822) scale(1,1)"><g><path fill="none" stroke="none"/><text fill="#000000" stroke="none" font-family="Arial" font-size="13px" font-style="normal" font-weight="bold" text-decoration="none" x="925.5" y="1443.5">CFForwardAnalysis</text></g></g><g transform="translate(-198,-822) scale(1,1)"><g><path fill="none" stroke="none"/><text fill="#000000" stroke="none" font-family="Arial" font-size="13px" font-style="normal" font-weight="normal" text-decoration="none" x="917" y="1475.5">+getEnv()</text></g></g><g transform="translate(-198,-822) scale(1,1)"><g><path fill="none" stroke="none"/><text fill="#000000" stroke="none" font-family="Arial" font-size="13px" font-style="normal" font-weight="normal" text-decoration="none" x="917" y="1490.5">+getTypes()</text></g></g><g transform="translate(-198,-822) scale(1,1)"><path fill="none" stroke="#000000" d="M 983 1423 L 966 1365" stroke-miterlimit="10"/></g><g transform="translate(-198,-822) scale(1,1)"><path fill="#FFFFFF" stroke="none" d="M 979.7960667508883 1382.1367599681223 L 966 1365 L 963.6377731722299 1386.8728115342808"/></g><g transform="translate(-198,-822) scale(1,1)"><path fill="none" stroke="#000000" d="M 979.7960667508883 1382.1367599681223 L 966 1365 L 963.6377731722299 1386.8728115342808 L 979.7960667508883 1382.1367599681223" stroke-miterlimit="10"/></g><g transform="translate(-198,-822) scale(1,1)"><path fill="none" stroke="#000000" d="M 966 1623 L 988 1496" stroke-miterlimit="10" stroke-dasharray="3"/></g><g transform="translate(-198,-822) scale(1,1)"><path fill="#FFFFFF" stroke="none" d="M 992.8262311149149 1517.464097773385 L 988 1496 L 976.2352516613183 1514.5900698365415"/></g><g transform="translate(-198,-822) scale(1,1)"><path fill="none" stroke="#000000" d="M 992.8262311149149 1517.464097773385 L 988 1496 L 976.2352516613183 1514.5900698365415 L 992.8262311149149 1517.464097773385" stroke-miterlimit="10"/></g></g></svg>